<svg width="71" height="70" viewBox="0 0 71 70" fill="none" xmlns="http://www.w3.org/2000/svg">
<rect x="0.5" width="70" height="70" rx="35" fill="#1FBEC3" fill-opacity="0.39"/>
<path d="M35.5034 15C36.6928 15 37.6537 16.1172 37.6537 17.5V27.8203C37.6537 29.1016 38.2182 30.2969 39.1455 30.9844L39.804 31.4688V27.9141C39.804 24.9219 41.8872 22.5 44.4609 22.5C45.9191 22.5 47.3369 23.2969 48.2105 24.75C49.2454 26.4766 51.1874 29.8594 52.9816 33.8828C54.7623 37.8594 56.5027 42.6719 56.9866 47.1875C57 47.2891 57 47.3906 57 47.5V48.0469C57 51.8828 54.3255 55 51.0194 55C50.5288 55 50.045 54.9297 49.5679 54.7891L44.6826 53.3672C41.82 52.5391 39.804 49.5391 39.804 46.0938V40.3906L45.8855 44.8906C46.3894 45.2578 47.048 45.0859 47.3705 44.5078C47.6931 43.9297 47.5385 43.1562 47.0413 42.7812L39.804 37.4297V37.3984L36.8406 35.2031C36.3501 34.8438 35.9065 34.4141 35.5034 33.9453C35.1069 34.4141 34.6567 34.8438 34.1661 35.2031L31.2027 37.3984L24.8323 42.1094L23.9251 42.7812C23.9251 42.7812 23.9251 42.7812 23.9184 42.7812C23.4212 43.1562 23.2733 43.9219 23.5959 44.5078C23.9117 45.0938 24.577 45.2656 25.0809 44.8906L31.2027 40.3594V46.0938C31.2027 49.5391 29.1867 52.5391 26.3174 53.3672L21.4321 54.7891C20.955 54.9297 20.4712 55 19.9806 55C16.6812 55 14 51.8906 14 48.0469V47.5C14 47.3984 14.0067 47.2891 14.0134 47.1875C14.4973 42.6641 16.2377 37.8594 18.0184 33.8828C19.8193 29.8594 21.7546 26.4766 22.7895 24.75C23.6631 23.2969 25.0742 22.5 26.5391 22.5C29.1196 22.5 31.2027 24.9219 31.2027 27.9141V31.4688L31.8612 30.9844C32.7886 30.2969 33.353 29.1016 33.353 27.8203V17.5C33.353 16.1172 34.314 15 35.5034 15Z" fill="#069094"/>
</svg>
