<svg width="257" height="70" viewBox="0 0 257 70" fill="none" xmlns="http://www.w3.org/2000/svg">
<rect x="0.5" width="70" height="70" rx="35" fill="#1FBEC3" fill-opacity="0.39"/>
<path d="M35.5034 15C36.6928 15 37.6537 16.1172 37.6537 17.5V27.8203C37.6537 29.1016 38.2182 30.2969 39.1455 30.9844L39.804 31.4688V27.9141C39.804 24.9219 41.8872 22.5 44.4609 22.5C45.9191 22.5 47.3369 23.2969 48.2105 24.75C49.2454 26.4766 51.1874 29.8594 52.9816 33.8828C54.7623 37.8594 56.5027 42.6719 56.9866 47.1875C57 47.2891 57 47.3906 57 47.5V48.0469C57 51.8828 54.3255 55 51.0194 55C50.5288 55 50.045 54.9297 49.5679 54.7891L44.6826 53.3672C41.82 52.5391 39.804 49.5391 39.804 46.0938V40.3906L45.8855 44.8906C46.3894 45.2578 47.048 45.0859 47.3705 44.5078C47.6931 43.9297 47.5385 43.1562 47.0413 42.7812L39.804 37.4297V37.3984L36.8406 35.2031C36.3501 34.8438 35.9065 34.4141 35.5034 33.9453C35.1069 34.4141 34.6567 34.8438 34.1661 35.2031L31.2027 37.3984L24.8323 42.1094L23.9251 42.7812C23.9251 42.7812 23.9251 42.7812 23.9184 42.7812C23.4212 43.1562 23.2733 43.9219 23.5959 44.5078C23.9117 45.0938 24.577 45.2656 25.0809 44.8906L31.2027 40.3594V46.0938C31.2027 49.5391 29.1867 52.5391 26.3174 53.3672L21.4321 54.7891C20.955 54.9297 20.4712 55 19.9806 55C16.6812 55 14 51.8906 14 48.0469V47.5C14 47.3984 14.0067 47.2891 14.0134 47.1875C14.4973 42.6641 16.2377 37.8594 18.0184 33.8828C19.8193 29.8594 21.7546 26.4766 22.7895 24.75C23.6631 23.2969 25.0742 22.5 26.5391 22.5C29.1196 22.5 31.2027 24.9219 31.2027 27.9141V31.4688L31.8612 30.9844C32.7886 30.2969 33.353 29.1016 33.353 27.8203V17.5C33.353 16.1172 34.314 15 35.5034 15Z" fill="#069094"/>
<path d="M97.3068 38.4091H101.489L103.591 41.1136L105.659 43.5227L109.557 48.4091H104.966L102.284 45.1136L100.909 43.1591L97.3068 38.4091ZM109.909 34.8636C109.909 37.4015 109.428 39.5606 108.466 41.3409C107.511 43.1212 106.208 44.4811 104.557 45.4205C102.913 46.3523 101.064 46.8182 99.0114 46.8182C96.9432 46.8182 95.0871 46.3485 93.4432 45.4091C91.7992 44.4697 90.5 43.1098 89.5455 41.3295C88.5909 39.5492 88.1136 37.3939 88.1136 34.8636C88.1136 32.3258 88.5909 30.1667 89.5455 28.3864C90.5 26.6061 91.7992 25.25 93.4432 24.3182C95.0871 23.3788 96.9432 22.9091 99.0114 22.9091C101.064 22.9091 102.913 23.3788 104.557 24.3182C106.208 25.25 107.511 26.6061 108.466 28.3864C109.428 30.1667 109.909 32.3258 109.909 34.8636ZM104.92 34.8636C104.92 33.2197 104.674 31.8333 104.182 30.7045C103.697 29.5758 103.011 28.7197 102.125 28.1364C101.239 27.553 100.201 27.2614 99.0114 27.2614C97.822 27.2614 96.7841 27.553 95.8977 28.1364C95.0114 28.7197 94.322 29.5758 93.8295 30.7045C93.3447 31.8333 93.1023 33.2197 93.1023 34.8636C93.1023 36.5076 93.3447 37.8939 93.8295 39.0227C94.322 40.1515 95.0114 41.0076 95.8977 41.5909C96.7841 42.1742 97.822 42.4659 99.0114 42.4659C100.201 42.4659 101.239 42.1742 102.125 41.5909C103.011 41.0076 103.697 40.1515 104.182 39.0227C104.674 37.8939 104.92 36.5076 104.92 34.8636ZM124.986 39.3636V29.0455H127.668V46.5H124.986V43.5455H124.804C124.395 44.4318 123.759 45.1856 122.895 45.8068C122.031 46.4205 120.94 46.7273 119.622 46.7273C118.531 46.7273 117.562 46.4886 116.713 46.0114C115.865 45.5265 115.198 44.7992 114.713 43.8295C114.228 42.8523 113.986 41.6212 113.986 40.1364V29.0455H116.668V39.9545C116.668 41.2273 117.024 42.2424 117.736 43C118.455 43.7576 119.372 44.1364 120.486 44.1364C121.152 44.1364 121.83 43.9659 122.52 43.625C123.217 43.2841 123.8 42.7614 124.27 42.0568C124.747 41.3523 124.986 40.4545 124.986 39.3636ZM139.898 46.8636C138.216 46.8636 136.765 46.4924 135.545 45.75C134.333 45 133.398 43.9545 132.739 42.6136C132.087 41.2652 131.761 39.697 131.761 37.9091C131.761 36.1212 132.087 34.5455 132.739 33.1818C133.398 31.8106 134.314 30.7424 135.489 29.9773C136.67 29.2045 138.049 28.8182 139.625 28.8182C140.534 28.8182 141.432 28.9697 142.318 29.2727C143.205 29.5758 144.011 30.0682 144.739 30.75C145.466 31.4242 146.045 32.3182 146.477 33.4318C146.909 34.5455 147.125 35.9167 147.125 37.5455V38.6818H133.67V36.3636H144.398C144.398 35.3788 144.201 34.5 143.807 33.7273C143.42 32.9545 142.867 32.3447 142.148 31.8977C141.436 31.4508 140.595 31.2273 139.625 31.2273C138.557 31.2273 137.633 31.4924 136.852 32.0227C136.08 32.5455 135.485 33.2273 135.068 34.0682C134.652 34.9091 134.443 35.8106 134.443 36.7727V38.3182C134.443 39.6364 134.67 40.7538 135.125 41.6705C135.587 42.5795 136.227 43.2727 137.045 43.75C137.864 44.2197 138.814 44.4545 139.898 44.4545C140.602 44.4545 141.239 44.3561 141.807 44.1591C142.383 43.9545 142.879 43.6515 143.295 43.25C143.712 42.8409 144.034 42.3333 144.261 41.7273L146.852 42.4545C146.58 43.3333 146.121 44.1061 145.477 44.7727C144.833 45.4318 144.038 45.947 143.091 46.3182C142.144 46.6818 141.08 46.8636 139.898 46.8636ZM162.205 39.3636V29.0455H164.886V46.5H162.205V43.5455H162.023C161.614 44.4318 160.977 45.1856 160.114 45.8068C159.25 46.4205 158.159 46.7273 156.841 46.7273C155.75 46.7273 154.78 46.4886 153.932 46.0114C153.083 45.5265 152.417 44.7992 151.932 43.8295C151.447 42.8523 151.205 41.6212 151.205 40.1364V29.0455H153.886V39.9545C153.886 41.2273 154.242 42.2424 154.955 43C155.674 43.7576 156.591 44.1364 157.705 44.1364C158.371 44.1364 159.049 43.9659 159.739 43.625C160.436 43.2841 161.019 42.7614 161.489 42.0568C161.966 41.3523 162.205 40.4545 162.205 39.3636ZM177.116 46.8636C175.435 46.8636 173.984 46.4924 172.764 45.75C171.552 45 170.616 43.9545 169.957 42.6136C169.306 41.2652 168.98 39.697 168.98 37.9091C168.98 36.1212 169.306 34.5455 169.957 33.1818C170.616 31.8106 171.533 30.7424 172.707 29.9773C173.889 29.2045 175.268 28.8182 176.844 28.8182C177.753 28.8182 178.651 28.9697 179.537 29.2727C180.423 29.5758 181.23 30.0682 181.957 30.75C182.685 31.4242 183.264 32.3182 183.696 33.4318C184.128 34.5455 184.344 35.9167 184.344 37.5455V38.6818H170.889V36.3636H181.616C181.616 35.3788 181.42 34.5 181.026 33.7273C180.639 32.9545 180.086 32.3447 179.366 31.8977C178.654 31.4508 177.813 31.2273 176.844 31.2273C175.776 31.2273 174.851 31.4924 174.071 32.0227C173.298 32.5455 172.704 33.2273 172.287 34.0682C171.87 34.9091 171.662 35.8106 171.662 36.7727V38.3182C171.662 39.6364 171.889 40.7538 172.344 41.6705C172.806 42.5795 173.446 43.2727 174.264 43.75C175.082 44.2197 176.033 44.4545 177.116 44.4545C177.821 44.4545 178.457 44.3561 179.026 44.1591C179.601 43.9545 180.098 43.6515 180.514 43.25C180.931 42.8409 181.253 42.3333 181.48 41.7273L184.071 42.4545C183.798 43.3333 183.34 44.1061 182.696 44.7727C182.052 45.4318 181.257 45.947 180.31 46.3182C179.363 46.6818 178.298 46.8636 177.116 46.8636ZM208.526 31.375H203.548C203.457 30.7311 203.272 30.1591 202.991 29.6591C202.711 29.1515 202.351 28.7197 201.912 28.3636C201.473 28.0076 200.965 27.7348 200.389 27.5455C199.821 27.3561 199.204 27.2614 198.537 27.2614C197.332 27.2614 196.283 27.5606 195.389 28.1591C194.495 28.75 193.802 29.6136 193.31 30.75C192.817 31.8788 192.571 33.25 192.571 34.8636C192.571 36.5227 192.817 37.9167 193.31 39.0455C193.81 40.1742 194.507 41.0265 195.401 41.6023C196.295 42.178 197.329 42.4659 198.503 42.4659C199.162 42.4659 199.772 42.3788 200.332 42.2045C200.901 42.0303 201.404 41.7765 201.844 41.4432C202.283 41.1023 202.647 40.6894 202.935 40.2045C203.23 39.7197 203.435 39.1667 203.548 38.5455L208.526 38.5682C208.397 39.6364 208.075 40.6667 207.56 41.6591C207.052 42.6439 206.366 43.5265 205.503 44.3068C204.647 45.0795 203.624 45.6932 202.435 46.1477C201.253 46.5947 199.916 46.8182 198.423 46.8182C196.348 46.8182 194.491 46.3485 192.855 45.4091C191.226 44.4697 189.938 43.1098 188.991 41.3295C188.052 39.5492 187.582 37.3939 187.582 34.8636C187.582 32.3258 188.06 30.1667 189.014 28.3864C189.969 26.6061 191.264 25.25 192.901 24.3182C194.537 23.3788 196.378 22.9091 198.423 22.9091C199.772 22.9091 201.022 23.0985 202.173 23.4773C203.332 23.8561 204.359 24.4091 205.253 25.1364C206.147 25.8561 206.874 26.7386 207.435 27.7841C208.003 28.8295 208.366 30.0265 208.526 31.375ZM217.622 46.9091C216.516 46.9091 215.512 46.7008 214.611 46.2841C213.709 45.8598 212.993 45.25 212.463 44.4545C211.933 43.6515 211.668 42.6818 211.668 41.5455C211.668 40.5455 211.865 39.7348 212.259 39.1136C212.652 38.4848 213.179 37.9924 213.838 37.6364C214.497 37.2803 215.224 37.0152 216.02 36.8409C216.823 36.6591 217.63 36.5152 218.44 36.4091C219.501 36.2727 220.361 36.1705 221.02 36.1023C221.687 36.0265 222.171 35.9015 222.474 35.7273C222.785 35.553 222.94 35.25 222.94 34.8182V34.7273C222.94 33.6061 222.634 32.7348 222.02 32.1136C221.414 31.4924 220.493 31.1818 219.259 31.1818C217.978 31.1818 216.974 31.4621 216.247 32.0227C215.52 32.5833 215.009 33.1818 214.713 33.8182L212.168 32.9091C212.622 31.8485 213.228 31.0227 213.986 30.4318C214.751 29.8333 215.584 29.4167 216.486 29.1818C217.395 28.9394 218.289 28.8182 219.168 28.8182C219.728 28.8182 220.372 28.8864 221.099 29.0227C221.834 29.1515 222.543 29.4205 223.224 29.8295C223.914 30.2386 224.486 30.8561 224.94 31.6818C225.395 32.5076 225.622 33.6136 225.622 35V46.5H222.94V44.1364H222.804C222.622 44.5152 222.319 44.9205 221.895 45.3523C221.471 45.7841 220.906 46.1515 220.202 46.4545C219.497 46.7576 218.637 46.9091 217.622 46.9091ZM218.031 44.5C219.092 44.5 219.986 44.2917 220.713 43.875C221.448 43.4583 222.001 42.9205 222.372 42.2614C222.751 41.6023 222.94 40.9091 222.94 40.1818V37.7273C222.827 37.8636 222.577 37.9886 222.19 38.1023C221.812 38.2083 221.372 38.303 220.872 38.3864C220.38 38.4621 219.899 38.5303 219.429 38.5909C218.967 38.6439 218.592 38.6894 218.304 38.7273C217.607 38.8182 216.955 38.9659 216.349 39.1705C215.751 39.3674 215.266 39.6667 214.895 40.0682C214.531 40.4621 214.349 41 214.349 41.6818C214.349 42.6136 214.694 43.3182 215.384 43.7955C216.08 44.2652 216.963 44.5 218.031 44.5ZM230.517 46.5V29.0455H233.108V31.6818H233.29C233.608 30.8182 234.184 30.1174 235.017 29.5795C235.85 29.0417 236.79 28.7727 237.835 28.7727C238.032 28.7727 238.278 28.7765 238.574 28.7841C238.869 28.7917 239.093 28.803 239.244 28.8182V31.5455C239.153 31.5227 238.945 31.4886 238.619 31.4432C238.301 31.3902 237.964 31.3636 237.608 31.3636C236.759 31.3636 236.002 31.5417 235.335 31.8977C234.676 32.2462 234.153 32.7311 233.767 33.3523C233.388 33.9659 233.199 34.6667 233.199 35.4545V46.5H230.517ZM249.21 46.8636C247.528 46.8636 246.078 46.4924 244.858 45.75C243.646 45 242.71 43.9545 242.051 42.6136C241.4 41.2652 241.074 39.697 241.074 37.9091C241.074 36.1212 241.4 34.5455 242.051 33.1818C242.71 31.8106 243.627 30.7424 244.801 29.9773C245.983 29.2045 247.362 28.8182 248.938 28.8182C249.847 28.8182 250.744 28.9697 251.631 29.2727C252.517 29.5758 253.324 30.0682 254.051 30.75C254.778 31.4242 255.358 32.3182 255.79 33.4318C256.222 34.5455 256.438 35.9167 256.438 37.5455V38.6818H242.983V36.3636H253.71C253.71 35.3788 253.513 34.5 253.119 33.7273C252.733 32.9545 252.18 32.3447 251.46 31.8977C250.748 31.4508 249.907 31.2273 248.938 31.2273C247.869 31.2273 246.945 31.4924 246.165 32.0227C245.392 32.5455 244.797 33.2273 244.381 34.0682C243.964 34.9091 243.756 35.8106 243.756 36.7727V38.3182C243.756 39.6364 243.983 40.7538 244.438 41.6705C244.9 42.5795 245.54 43.2727 246.358 43.75C247.176 44.2197 248.127 44.4545 249.21 44.4545C249.915 44.4545 250.551 44.3561 251.119 44.1591C251.695 43.9545 252.191 43.6515 252.608 43.25C253.025 42.8409 253.347 42.3333 253.574 41.7273L256.165 42.4545C255.892 43.3333 255.434 44.1061 254.79 44.7727C254.146 45.4318 253.35 45.947 252.403 46.3182C251.456 46.6818 250.392 46.8636 249.21 46.8636Z" fill="#1FBEC3"/>
</svg>
